<svg width="24" height="24" viewBox="0 0 24 24" fill="none" xmlns="http://www.w3.org/2000/svg">
    <path fill-rule="evenodd" clip-rule="evenodd" d="M11.9303 4.19995C13.4548 4.19995 14.691 5.38068 14.691 6.8369V7.78942H9.17019V7.71199V7.71193V6.8369C9.17019 5.38068 10.4064 4.19995 11.9303 4.19995ZM8.53661 10.1071V10.161C8.53969 11.719 9.68059 13.0425 11.2157 13.374V12.5548C10.0377 12.2539 9.16992 11.2279 9.16992 10.0079V9.71832H8.92743H8.53661V10.1071ZM15.3959 9.71832H15.0056H14.6907V10.0079C14.6907 11.169 13.9044 12.1541 12.8131 12.5059V13.3526C14.2996 12.9878 15.3926 11.6865 15.3959 10.161V10.1071V9.71832ZM16.1781 10.107V10.1609C16.1753 12.1331 14.7251 13.7672 12.8131 14.1481V19.7999H11.2156V14.1649C9.25663 13.8201 7.75699 12.1657 7.7548 10.1609V10.107V8.94114H8.92737H9.16986V8.10243H14.6907V8.94114H15.0056H16.1781V10.107ZM19.9935 12.8716C19.9935 12.8716 16.6903 12.6676 14.7804 14.5672C12.8707 16.4666 13.0768 19.7518 13.0768 19.7518C13.0768 19.7518 16.3796 19.9574 18.2893 18.0577C20.199 16.1578 19.9935 12.8716 19.9935 12.8716ZM5.71057 18.0577C3.80094 16.1578 4.00638 12.8716 4.00638 12.8716C4.00638 12.8716 7.30953 12.6676 9.21952 14.5672C11.1289 16.4666 10.9231 19.7518 10.9231 19.7518C10.9231 19.7518 7.61997 19.9574 5.71057 18.0577Z" fill="black"/>
    </svg>
