<?xml version="1.0" encoding="utf-8"?>
<!-- Generator: Adobe Illustrator 22.1.0, SVG Export Plug-In . SVG Version: 6.00 Build 0)  -->
<svg version="1.1" id="Layer_1" xmlns="http://www.w3.org/2000/svg" xmlns:xlink="http://www.w3.org/1999/xlink" x="0px" y="0px"
	 viewBox="0 0 235.4 36" style="enable-background:new 0 0 235.4 36;" xml:space="preserve">
<style type="text/css">
	.st0{fill:#000000;}
</style>
<g transform="translate(-40 -12)">
	<g transform="translate(545.946 -1989.826)">
		<path class="st0" d="M-495.6,2025.3l2.5-2c0.6,1.2,1.9,2,3.3,2c1.1,0.1,2.1-0.7,2.3-1.8c0-0.1,0-0.1,0-0.2c0-1.3-1.5-1.7-3.1-2.1
			c-2-0.6-4.2-1.4-4.2-4.2c0-2.4,2.1-4.3,4.9-4.3c1.9-0.1,3.7,0.7,5,2.2l-2.3,1.7c-0.6-0.9-1.6-1.5-2.7-1.4c-1.3,0-2.1,0.7-2.1,1.7
			c0,1.2,1.4,1.6,3,2.1c2,0.7,4.3,1.5,4.3,4.4c-0.1,2.6-2.3,4.7-4.9,4.6c-0.1,0-0.2,0-0.2,0C-492,2028-494.2,2027-495.6,2025.3z"/>
		<path class="st0" d="M-483.5,2021.8c-0.2-3.3,2.3-6,5.6-6.2c0.1,0,0.2,0,0.3,0c1.5,0,2.9,0.6,3.8,1.7v-1.4h2.7v11.9h-2.7v-1.5
			c-1,1.2-2.4,1.8-3.9,1.8c-3.3-0.1-5.9-2.8-5.9-6.1C-483.5,2021.9-483.5,2021.9-483.5,2021.8z M-473.6,2021.8c0-2-1.5-3.6-3.5-3.7
			c0,0,0,0-0.1,0c-2,0-3.6,1.6-3.6,3.6c0,0,0,0.1,0,0.1c-0.1,2,1.5,3.7,3.5,3.7c0,0,0.1,0,0.1,0c2,0,3.6-1.6,3.6-3.6
			C-473.6,2021.8-473.6,2021.8-473.6,2021.8L-473.6,2021.8z"/>
		<path class="st0" d="M-469.3,2015.9h2.7v1.4c0.8-1.1,2.1-1.7,3.4-1.6c1.6-0.1,3.1,0.7,3.9,2.1c0.9-1.3,2.3-2.1,3.9-2.1
			c3.2,0,4.8,1.9,4.8,5v7.2h-2.8v-6.9c0.2-1.4-0.7-2.6-2.1-2.8c-0.2,0-0.3,0-0.5,0c-1.5,0-2.6,1-2.6,3.1v6.7h-2.8v-7
			c0-1.7-0.9-2.8-2.5-2.8c-1.5,0-2.7,1.1-2.7,3.2v6.6h-2.7L-469.3,2015.9z"/>
		<path class="st0" d="M-449.8,2025.1l2.5-1.2c0.5,1.1,1.7,1.8,2.9,1.7c1.3,0,2-0.7,2-1.4c0-0.9-1.3-1.1-2.8-1.4
			c-2.1-0.4-4.2-1.1-4.2-3.6c0-1.9,1.8-3.7,4.7-3.6c2-0.1,3.8,0.8,4.9,2.5l-2.3,1.2c-0.5-0.9-1.5-1.4-2.5-1.4
			c-1.3,0-1.9,0.6-1.9,1.3c0,0.8,1,1,2.7,1.4c2,0.4,4.2,1.1,4.2,3.6c0,1.7-1.5,3.9-4.9,3.9C-446.7,2028.2-448.8,2027.1-449.8,2025.1
			z"/>
		<path class="st0" d="M-427.8,2027.8h-2.7v-1.4c-0.8,1.1-2.1,1.7-3.4,1.6c-2.8,0-4.6-1.9-4.6-5.1v-7.1h2.8v6.8c0,1.8,0.8,3,2.5,3
			c1.5,0,2.6-1.2,2.6-3.2v-6.5h2.7L-427.8,2027.8z"/>
		<path class="st0" d="M-426.1,2015.9h2.7v1.5c0.8-1.1,2.2-1.7,3.6-1.7c2.9,0,4.7,1.9,4.7,5.1v7.1h-2.8v-6.8c0-1.8-0.9-3-2.7-3
			c-1.6,0-2.8,1.2-2.8,3.2v6.5h-2.7L-426.1,2015.9z"/>
		<path class="st0" d="M-404.2,2026.2c-0.9,1.2-2.4,1.9-3.9,1.8c-3.3-0.1-5.9-2.8-5.9-6.1c0,0,0-0.1,0-0.1c-0.2-3.3,2.3-6,5.6-6.2
			c0.1,0,0.2,0,0.3,0c1.5,0,2.9,0.6,3.8,1.8v-1.5h2.7v11.6c0.2,3.2-2.2,5.9-5.4,6.1c-0.2,0-0.5,0-0.7,0c-2.5,0.1-4.9-1.2-6.1-3.4
			l2.4-1.5c0.6,1.5,2.1,2.5,3.7,2.4c1.8,0,3.4-1.4,3.4-3.3c0-0.1,0-0.1,0-0.2L-404.2,2026.2z M-404,2021.8c0-2-1.5-3.6-3.5-3.7
			c0,0,0,0-0.1,0c-2,0-3.6,1.6-3.6,3.6c0,0,0,0.1,0,0.1c-0.1,2,1.5,3.7,3.5,3.7c0,0,0.1,0,0.1,0
			C-405.6,2025.5-404,2023.9-404,2021.8C-404,2021.8-404,2021.8-404,2021.8z"/>
		<path class="st0" d="M-394.8,2012.9h4.1c5,0,7.9,3.2,7.9,7.4c0,4.1-3.2,7.4-7.3,7.4c-0.2,0-0.3,0-0.5,0h-4.2V2012.9z M-392,2015.5
			v9.7h1.1c3.2,0,5.3-2.1,5.3-4.9c0-2.9-1.8-4.9-5.4-4.9L-392,2015.5z"/>
		<path class="st0" d="M-382,2021.8c0-3.4,2.7-6.2,6.1-6.2c0,0,0.1,0,0.1,0c3.3-0.1,6,2.5,6.1,5.8c0,0.1,0,0.2,0,0.4v1h-9.7
			c0.4,1.7,1.9,2.9,3.7,2.8c1.4,0,2.7-0.8,3.3-2.1l2.3,1.3c-1.1,2.1-3.2,3.3-5.6,3.2c-3.3,0.1-6.2-2.5-6.3-5.8
			C-382,2022.1-382,2022-382,2021.8z M-379.3,2020.5h6.8c-0.4-1.5-1.8-2.6-3.3-2.4C-377.4,2018-378.8,2019-379.3,2020.5
			L-379.3,2020.5z"/>
		<path class="st0" d="M-369.9,2015.9h2.9l3.1,8.4l3-8.4h2.8l-4.5,11.9h-2.8L-369.9,2015.9z"/>
		<path class="st0" d="M-358.4,2021.8c0-3.4,2.7-6.2,6.1-6.2c0,0,0.1,0,0.1,0c3.3-0.1,6,2.5,6.1,5.8c0,0.1,0,0.2,0,0.4v1h-9.7
			c0.4,1.7,1.9,2.9,3.7,2.8c1.4,0,2.7-0.8,3.3-2.1l2.3,1.3c-1.1,2.1-3.2,3.3-5.6,3.2c-3.3,0.1-6.2-2.5-6.3-5.8
			C-358.4,2022.1-358.4,2022-358.4,2021.8z M-355.6,2020.5h6.8c-0.4-1.5-1.8-2.6-3.3-2.4C-353.8,2018-355.2,2019-355.6,2020.5
			L-355.6,2020.5z"/>
		<path class="st0" d="M-344.9,2012.7h2.8v15.1h-2.8V2012.7z"/>
		<path class="st0" d="M-340.9,2021.8c0-3.4,2.7-6.2,6.1-6.2c0,0,0.1,0,0.1,0c3.4,0,6.2,2.8,6.2,6.2c0,0,0,0,0,0.1
			c0,3.4-2.7,6.2-6.1,6.2c0,0,0,0,0,0C-338.1,2028-340.9,2025.3-340.9,2021.8C-340.9,2021.9-340.9,2021.8-340.9,2021.8z
			 M-331.3,2021.8c0-2-1.5-3.6-3.5-3.6c0,0,0,0,0,0c-1.9,0-3.5,1.6-3.5,3.5c0,0,0,0,0,0.1c-0.1,1.9,1.5,3.5,3.4,3.6c0,0,0,0,0.1,0
			C-332.8,2025.4-331.2,2023.8-331.3,2021.8C-331.3,2021.8-331.3,2021.8-331.3,2021.8L-331.3,2021.8z"/>
		<path class="st0" d="M-324.6,2026.4v6.9h-2.7v-17.4h2.7v1.6c0.9-1.2,2.4-1.9,3.9-1.8c3.2,0,5.9,2.6,5.9,5.9c0,0.1,0,0.2,0,0.3
			c0.1,3.3-2.4,6-5.7,6.2c-0.1,0-0.1,0-0.2,0C-322.2,2028.1-323.6,2027.5-324.6,2026.4z M-317.6,2021.8c0-2-1.5-3.6-3.5-3.7
			c0,0-0.1,0-0.1,0c-2,0-3.5,1.6-3.5,3.6c0,0,0,0.1,0,0.1c-0.1,2,1.4,3.6,3.4,3.7c0,0,0.1,0,0.1,0
			C-319.2,2025.5-317.6,2023.9-317.6,2021.8C-317.6,2021.8-317.6,2021.8-317.6,2021.8z"/>
		<path class="st0" d="M-314,2021.8c0-3.4,2.7-6.2,6.1-6.2c0,0,0.1,0,0.1,0c3.3-0.1,6,2.5,6.1,5.8c0,0.1,0,0.2,0,0.4v1h-9.7
			c0.4,1.7,1.9,2.9,3.7,2.8c1.4,0,2.7-0.8,3.3-2.1l2.3,1.3c-1.1,2.1-3.2,3.3-5.6,3.2c-3.3,0.1-6.2-2.5-6.3-5.8
			C-314,2022.1-314,2022-314,2021.8z M-311.3,2020.5h6.8c-0.4-1.5-1.8-2.6-3.3-2.4C-309.4,2018-310.8,2019-311.3,2020.5
			L-311.3,2020.5z"/>
		<path class="st0" d="M-300.5,2015.9h2.7v1.8c0.5-1.2,1.8-1.9,3.1-1.8c0.7,0,1.5,0.2,2.1,0.5l-1,2.6c-0.5-0.3-1.1-0.5-1.7-0.5
			c-1.6,0-2.4,0.9-2.4,2.9v6.4h-2.7L-300.5,2015.9z"/>
		<path class="st0" d="M-292.6,2025.1l2.5-1.2c0.5,1.1,1.7,1.8,2.9,1.7c1.3,0,2-0.7,2-1.4c0-0.9-1.3-1.1-2.8-1.4
			c-2.1-0.4-4.2-1.1-4.2-3.6c0-1.9,1.8-3.7,4.7-3.6c2-0.1,3.8,0.8,4.9,2.5l-2.3,1.2c-0.5-0.9-1.5-1.4-2.5-1.4
			c-1.3,0-1.9,0.6-1.9,1.3c0,0.8,1,1,2.7,1.4c2,0.4,4.2,1.1,4.2,3.6c0,1.7-1.5,3.9-4.9,3.9C-289.5,2028.2-291.6,2027.1-292.6,2025.1
			z"/>
	</g>
</g>
</svg>
