<svg xmlns="http://www.w3.org/2000/svg" xmlns:xlink="http://www.w3.org/1999/xlink" width="235.407" height="36" viewBox="0 0 235.407 36"><defs><linearGradient id="a" x1="0.291" y1="-11.05" x2="0.961" y2="-10.687" gradientUnits="objectBoundingBox"><stop offset="0" stop-color="#020202"/><stop offset="0.064" stop-color="#181a25"/><stop offset="0.14" stop-color="#23253e"/><stop offset="0.223" stop-color="#2a2e54"/><stop offset="0.311" stop-color="#2c3368"/><stop offset="0.405" stop-color="#2b3677"/><stop offset="0.508" stop-color="#2a3a82"/><stop offset="0.624" stop-color="#293a8c"/><stop offset="0.765" stop-color="#273c91"/><stop offset="1" stop-color="#293d94"/></linearGradient><linearGradient id="b" x1="0.348" y1="-11" x2="0.89" y2="-11.581" gradientUnits="objectBoundingBox"><stop offset="0" stop-color="#2478be"/><stop offset="0.226" stop-color="#2376bc"/><stop offset="0.407" stop-color="#2471b9"/><stop offset="0.572" stop-color="#2568b2"/><stop offset="0.729" stop-color="#285dab"/><stop offset="0.877" stop-color="#274d9e"/><stop offset="1" stop-color="#293d94"/></linearGradient><linearGradient id="c" x1="1.832" y1="-6.608" x2="0.349" y2="-5.992" gradientUnits="objectBoundingBox"><stop offset="0" stop-color="#2478be"/><stop offset="0.6" stop-color="#0cb3e1"/></linearGradient></defs><g transform="translate(-40 -12)"><g transform="translate(39.5 10.199)"><path d="M3.8,17.7a29.561,29.561,0,0,1,18.4,5A29.189,29.189,0,0,1,33.8,37.8H27.1A22.726,22.726,0,0,0,18.7,28,23.618,23.618,0,0,0,6.4,24Z" fill="url(#a)"/><path d="M32.7,7.4A29.692,29.692,0,0,1,19.2,20.8,29.24,29.24,0,0,1,.5,23.4l3.4-5.8a25.131,25.131,0,0,0,12.8-2.3,23.184,23.184,0,0,0,9.6-8.7Z" fill="url(#b)"/><path d="M22.4,22.9a20.445,20.445,0,0,1,0-3.5A29.6,29.6,0,0,1,29.6,1.8L33,7.6a22.435,22.435,0,0,0-4.3,12.1,23.906,23.906,0,0,0,2.7,12.7A31.341,31.341,0,0,0,22.4,22.9Z" fill="url(#c)"/></g><g transform="translate(545.946 -1989.826)"><path d="M-458.946,2024.971l2.233-1.764a3.315,3.315,0,0,0,2.88,1.782,1.811,1.811,0,0,0,2-1.764c0-1.117-1.332-1.459-2.737-1.891-1.764-.558-3.727-1.242-3.727-3.745,0-2.107,1.837-3.763,4.358-3.763a5.62,5.62,0,0,1,4.411,1.908l-2.017,1.531a2.694,2.694,0,0,0-2.376-1.261c-1.189,0-1.837.649-1.837,1.495,0,1.044,1.26,1.386,2.683,1.855,1.782.576,3.8,1.368,3.8,3.889a4.215,4.215,0,0,1-4.537,4.087A6.465,6.465,0,0,1-458.946,2024.971Z" fill="#fff"/><path d="M-448.236,2021.892a5.211,5.211,0,0,1,5.221-5.491,4.418,4.418,0,0,1,3.386,1.476v-1.26h2.43v10.533h-2.43v-1.368a4.371,4.371,0,0,1-3.422,1.584A5.274,5.274,0,0,1-448.236,2021.892Zm8.733-.036a3.164,3.164,0,0,0-3.151-3.241,3.171,3.171,0,0,0-3.187,3.241,3.19,3.19,0,0,0,3.187,3.277A3.172,3.172,0,0,0-439.5,2021.856Z" fill="#fff"/><path d="M-435.727,2016.617h2.413v1.224a3.665,3.665,0,0,1,3.007-1.44,3.655,3.655,0,0,1,3.421,1.818,4.064,4.064,0,0,1,3.457-1.818c2.827,0,4.285,1.692,4.285,4.411v6.338h-2.484v-6.14a2.193,2.193,0,0,0-2.287-2.5c-1.314,0-2.323.919-2.323,2.755v5.888H-428.7v-6.212c0-1.494-.755-2.431-2.214-2.431-1.369,0-2.377.937-2.377,2.809v5.834h-2.431Z" fill="#fff"/><path d="M-418.483,2024.809l2.251-1.08a2.746,2.746,0,0,0,2.539,1.53c1.188,0,1.8-.594,1.8-1.278,0-.756-1.17-.937-2.466-1.207-1.819-.359-3.692-.972-3.692-3.169,0-1.692,1.621-3.24,4.141-3.222a4.7,4.7,0,0,1,4.3,2.179l-2.071,1.043a2.5,2.5,0,0,0-2.233-1.206c-1.152,0-1.692.54-1.692,1.135,0,.7.846.882,2.413,1.224,1.728.36,3.709.954,3.709,3.169,0,1.476-1.314,3.457-4.321,3.439A4.792,4.792,0,0,1-418.483,2024.809Z" fill="#fff"/><path d="M-399.04,2027.15h-2.413v-1.207a3.635,3.635,0,0,1-3.025,1.423c-2.484,0-4.051-1.693-4.051-4.5v-6.248h2.467v6c0,1.62.72,2.646,2.25,2.646,1.333,0,2.341-1.026,2.341-2.863v-5.779h2.431Z" fill="#fff"/><path d="M-397.549,2016.617h2.413v1.3a3.877,3.877,0,0,1,3.151-1.512c2.592,0,4.177,1.692,4.177,4.5v6.248h-2.466v-6c0-1.62-.793-2.647-2.377-2.647-1.387,0-2.467,1.027-2.467,2.863v5.78h-2.431Z" fill="#fff"/><path d="M-378.125,2025.746a4.351,4.351,0,0,1-3.438,1.62,5.274,5.274,0,0,1-5.186-5.474,5.211,5.211,0,0,1,5.221-5.491,4.308,4.308,0,0,1,3.385,1.566v-1.35h2.431v10.263a5.081,5.081,0,0,1-5.437,5.366,5.741,5.741,0,0,1-5.4-3.025l2.16-1.315a3.33,3.33,0,0,0,3.277,2.107,2.948,2.948,0,0,0,2.989-3.043Zm.108-3.89a3.163,3.163,0,0,0-3.15-3.241,3.171,3.171,0,0,0-3.187,3.241,3.19,3.19,0,0,0,3.187,3.277A3.172,3.172,0,0,0-378.017,2021.856Z" fill="#fff"/><path d="M-369.829,2014.006h3.583c4.429,0,6.95,2.845,6.95,6.572a6.509,6.509,0,0,1-6.842,6.572h-3.691Zm2.449,2.269v8.606h.954c2.863,0,4.681-1.854,4.681-4.3,0-2.521-1.548-4.3-4.789-4.3Z" fill="#fff"/><path d="M-358.562,2021.91a5.434,5.434,0,0,1,5.474-5.509,5.261,5.261,0,0,1,5.42,5.419v.919h-8.571a3.12,3.12,0,0,0,3.241,2.484,3.112,3.112,0,0,0,2.917-1.854l2,1.152a5.335,5.335,0,0,1-4.915,2.845A5.347,5.347,0,0,1-358.562,2021.91Zm2.449-1.206h5.978a2.8,2.8,0,0,0-2.953-2.161A3.122,3.122,0,0,0-356.113,2020.7Z" fill="#fff"/><path d="M-347.852,2016.617h2.539l2.719,7.418,2.665-7.418h2.5l-3.961,10.533h-2.448Z" fill="#fff"/><path d="M-337.682,2021.91a5.434,5.434,0,0,1,5.474-5.509,5.261,5.261,0,0,1,5.42,5.419v.919h-8.571a3.121,3.121,0,0,0,3.241,2.484,3.113,3.113,0,0,0,2.917-1.854l2,1.152a5.338,5.338,0,0,1-4.916,2.845A5.347,5.347,0,0,1-337.682,2021.91Zm2.45-1.206h5.977a2.8,2.8,0,0,0-2.953-2.161A3.119,3.119,0,0,0-335.232,2020.7Z" fill="#fff"/><path d="M-325.711,2013.826h2.448v13.324h-2.448Z" fill="#fff"/><path d="M-322.2,2021.892a5.437,5.437,0,0,1,5.456-5.491,5.448,5.448,0,0,1,5.455,5.491,5.444,5.444,0,0,1-5.455,5.474A5.434,5.434,0,0,1-322.2,2021.892Zm8.516,0a3.126,3.126,0,0,0-3.06-3.2,3.1,3.1,0,0,0-3.061,3.2,3.1,3.1,0,0,0,3.061,3.187A3.121,3.121,0,0,0-313.686,2021.892Z" fill="#fff"/><path d="M-307.819,2025.908v6.085h-2.413v-15.376h2.413v1.4a4.291,4.291,0,0,1,3.421-1.62,5.194,5.194,0,0,1,5.186,5.491,5.25,5.25,0,0,1-5.168,5.474A4.3,4.3,0,0,1-307.819,2025.908Zm6.212-4.052a3.168,3.168,0,0,0-3.169-3.241,3.137,3.137,0,0,0-3.133,3.241,3.146,3.146,0,0,0,3.133,3.277A3.187,3.187,0,0,0-301.607,2021.856Z" fill="#fff"/><path d="M-298.46,2021.91a5.434,5.434,0,0,1,5.474-5.509,5.261,5.261,0,0,1,5.419,5.419v.919h-8.571a3.122,3.122,0,0,0,3.242,2.484,3.114,3.114,0,0,0,2.917-1.854l2,1.152a5.336,5.336,0,0,1-4.915,2.845A5.347,5.347,0,0,1-298.46,2021.91Zm2.448-1.206h5.978a2.8,2.8,0,0,0-2.952-2.161A3.123,3.123,0,0,0-296.012,2020.7Z" fill="#fff"/><path d="M-286.49,2016.617h2.412v1.566a2.693,2.693,0,0,1,2.7-1.566,3.712,3.712,0,0,1,1.854.45l-.918,2.3a2.469,2.469,0,0,0-1.459-.414c-1.4,0-2.161.756-2.161,2.574v5.618h-2.43Z" fill="#fff"/><path d="M-279.542,2024.809l2.251-1.08a2.746,2.746,0,0,0,2.539,1.53c1.188,0,1.8-.594,1.8-1.278,0-.756-1.17-.937-2.467-1.207-1.818-.359-3.691-.972-3.691-3.169,0-1.692,1.621-3.24,4.141-3.222a4.7,4.7,0,0,1,4.3,2.179l-2.071,1.043a2.5,2.5,0,0,0-2.233-1.206c-1.152,0-1.692.54-1.692,1.135,0,.7.846.882,2.412,1.224,1.729.36,3.71.954,3.71,3.169,0,1.476-1.315,3.457-4.321,3.439A4.792,4.792,0,0,1-279.542,2024.809Z" fill="#fff"/></g></g></svg>