<svg id="Layer_1" data-name="Layer 1" xmlns="http://www.w3.org/2000/svg" xmlns:xlink="http://www.w3.org/1999/xlink" viewBox="0 0 289.97 40.67"><defs><style>.cls-1{fill:#fff;}.cls-2{fill:url(#linear-gradient);}.cls-3{fill:url(#linear-gradient-2);}.cls-4{fill:url(#linear-gradient-3);}</style><linearGradient id="linear-gradient" x1="8.82" y1="-1282.99" x2="31.45" y2="-1274.76" gradientTransform="matrix(1, 0, 0, -1, -0.77, -1249.05)" gradientUnits="userSpaceOnUse"><stop offset="0" stop-color="#020202"/><stop offset="0.06" stop-color="#181a25"/><stop offset="0.14" stop-color="#23253e"/><stop offset="0.22" stop-color="#2a2e54"/><stop offset="0.31" stop-color="#2c3368"/><stop offset="0.4" stop-color="#2b3677"/><stop offset="0.51" stop-color="#2a3a82"/><stop offset="0.62" stop-color="#293a8c"/><stop offset="0.77" stop-color="#273c91"/><stop offset="1" stop-color="#293d94"/></linearGradient><linearGradient id="linear-gradient-2" x1="11.04" y1="-1259.88" x2="30.71" y2="-1271.24" gradientTransform="matrix(1, 0, 0, -1, -0.77, -1249.05)" gradientUnits="userSpaceOnUse"><stop offset="0" stop-color="#2478be"/><stop offset="0.23" stop-color="#2376bc"/><stop offset="0.41" stop-color="#2471b9"/><stop offset="0.57" stop-color="#2568b2"/><stop offset="0.73" stop-color="#285dab"/><stop offset="0.88" stop-color="#274d9e"/><stop offset="1" stop-color="#293d94"/></linearGradient><linearGradient id="linear-gradient-3" x1="45.28" y1="-1279.75" x2="27.43" y2="-1258.47" gradientTransform="matrix(1, 0, 0, -1, -0.77, -1249.05)" gradientUnits="userSpaceOnUse"><stop offset="0" stop-color="#2478be"/><stop offset="0.6" stop-color="#0cb3e1"/></linearGradient></defs><title>logo_developers_w</title><path id="_Compound_Path_" data-name=" Compound Path " class="cls-1" d="M51.45,16.66a1.88,1.88,0,0,1,0-.8,1.25,1.25,0,0,1,1.39-1,1.3,1.3,0,0,1,1.41,1.38v.94H58V16.09c0-3.31-3-3.84-5.13-3.84-2.7,0-4.91.9-5.31,3.38a5.25,5.25,0,0,0,0,2c.66,3.11,6.06,4,6.85,6a2,2,0,0,1,0,1.12A1.32,1.32,0,0,1,53,25.81a1.35,1.35,0,0,1-1.52-1.39V23H47.41v1.16c0,3.4,2.67,4.42,5.53,4.42s5-.94,5.37-3.48a7.57,7.57,0,0,0,0-2.49c-.64-3.19-6.41-4.14-6.84-5.92m49.45,0a2,2,0,0,1,0-.79,1.25,1.25,0,0,1,1.38-1,1.28,1.28,0,0,1,1.39,1.37v.93h3.75v-1c0-3.28-2.94-3.79-5.06-3.79-2.68,0-4.87.88-5.26,3.35a5.07,5.07,0,0,0,0,2c.65,3.07,6,4,6.78,5.91a2,2,0,0,1,0,1.11c-.12.5-.46,1-1.46,1a1.35,1.35,0,0,1-1.52-1.36V22.93h-4v1.16c0,3.36,2.63,4.38,5.47,4.38s5-.93,5.32-3.44a7.42,7.42,0,0,0,0-2.47c-.63-3.15-6.33-4.1-6.77-5.86M135.47,25l-3.58-12.24h-5.64V27.81H130l-.22-12.63,3.81,12.63H139v-15h-3.76ZM63.69,12.74,60.87,27.95H65l2.1-14.08,2.07,14.08h4.08l-2.8-15.21Zm23,0-2,11.89L82.82,12.74h-6.2l-.33,15.21h3.8l.1-14.08L82.8,27.95h3.86l2.62-14.08.1,14.08H93.2l-.34-15.21Zm35.33,0h-3.85V24a2.65,2.65,0,0,1,0,.58,1.51,1.51,0,0,1-2.91,0,2.47,2.47,0,0,1,0-.58V12.74h-3.85v11.9c.26,2.84,2.5,3.76,5.3,3.76s5-.92,5.31-3.76a7.93,7.93,0,0,0,0-1Zm26.4,6.67v2.22H150v2.18a2.69,2.69,0,0,1,0,.58,1.64,1.64,0,0,1-3.11,0,3.77,3.77,0,0,1,0-.58v-7a3.08,3.08,0,0,1,.07-.72,1.59,1.59,0,0,1,3,0,4,4,0,0,1,0,.59v.84h3.83V17a9.19,9.19,0,0,0,0-1c-.29-2.85-2.64-3.76-5.33-3.76s-5,.91-5.34,3.76c0,.26-.08.73-.08,1v6.39a8.62,8.62,0,0,0,.06,1c.25,2.77,2.65,3.76,5.34,3.76s5.09-1,5.35-3.76c0-.51.05-.73.06-1v-4Z"/><path class="cls-1" d="M166.88,12.25h4.44a10,10,0,0,1,3.66.63,7.82,7.82,0,0,1,2.71,1.72,7.21,7.21,0,0,1,1.67,2.58,8.92,8.92,0,0,1,.57,3.23,8.3,8.3,0,0,1-.62,3.24,7.61,7.61,0,0,1-1.75,2.58,8.28,8.28,0,0,1-2.69,1.71,9.11,9.11,0,0,1-3.41.63h-4.57V12.25Zm3,2.81V25.73h1.18a6.81,6.81,0,0,0,2.41-.4,5.2,5.2,0,0,0,1.82-1.13,5.14,5.14,0,0,0,1.16-1.7,5.34,5.34,0,0,0,.41-2.11,6.22,6.22,0,0,0-.36-2.15,4.46,4.46,0,0,0-1.09-1.68,5,5,0,0,0-1.85-1.1,8,8,0,0,0-2.63-.39Z"/><path class="cls-1" d="M187.74,28.57a7.55,7.55,0,0,1-2.81-.5,6.51,6.51,0,0,1-2.18-1.39,6.24,6.24,0,0,1-1.41-2.08,6.55,6.55,0,0,1,1.5-7.22,6.91,6.91,0,0,1,4.82-1.91,7.52,7.52,0,0,1,2.69.47,6.33,6.33,0,0,1,2.13,1.32,6.08,6.08,0,0,1,1.4,2,6.21,6.21,0,0,1,.5,2.51v1H183.73A3.87,3.87,0,0,0,185.09,25a4.09,4.09,0,0,0,2.66.85,3.81,3.81,0,0,0,3.62-2.3L193.85,25a6.56,6.56,0,0,1-6.09,3.52Zm-.11-10.44a4.46,4.46,0,0,0-2.35.6,3.29,3.29,0,0,0-1.4,1.59h7.41A2.77,2.77,0,0,0,190,18.68a4.64,4.64,0,0,0-2.37-.56Z"/><path class="cls-1" d="M194.13,15.49h3.15l3.37,9.19,3.3-9.19H207l-4.91,13.06h-3Z"/><path class="cls-1" d="M213.63,28.57a7.55,7.55,0,0,1-2.81-.5,6.51,6.51,0,0,1-2.18-1.39,6.26,6.26,0,0,1-1.41-2.08,6.55,6.55,0,0,1,1.5-7.22,6.91,6.91,0,0,1,4.82-1.91,7.53,7.53,0,0,1,2.69.47,6.33,6.33,0,0,1,2.13,1.32,6.07,6.07,0,0,1,1.4,2,6.21,6.21,0,0,1,.5,2.51v1H209.61A3.87,3.87,0,0,0,211,25.07a4.09,4.09,0,0,0,2.66.85,3.82,3.82,0,0,0,3.62-2.3l2.48,1.43a6.56,6.56,0,0,1-6.09,3.52Zm-.11-10.44a4.46,4.46,0,0,0-2.35.6,3.29,3.29,0,0,0-1.4,1.59h7.41a2.77,2.77,0,0,0-1.29-1.63,4.64,4.64,0,0,0-2.37-.57Z"/><path class="cls-1" d="M221.58,12h3V28.55h-3Z"/><path class="cls-1" d="M232.69,28.57a6.93,6.93,0,0,1-2.65-.5A6.52,6.52,0,0,1,230,16a6.93,6.93,0,0,1,2.65-.51,6.83,6.83,0,0,1,4.79,1.9,6.45,6.45,0,0,1,0,9.3,6.83,6.83,0,0,1-4.79,1.9Zm0-2.83a3.8,3.8,0,0,0,1.49-.29,3.87,3.87,0,0,0,1.21-.8,3.72,3.72,0,0,0,0-5.26,3.85,3.85,0,0,0-1.21-.8,3.8,3.8,0,0,0-1.49-.29,3.88,3.88,0,0,0-1.51.29A3.69,3.69,0,0,0,228.89,22a3.73,3.73,0,0,0,2.29,3.43,3.88,3.88,0,0,0,1.51.28Z"/><path class="cls-1" d="M248,28.57a6.27,6.27,0,0,1-2.46-.47,4.45,4.45,0,0,1-1.81-1.34v7.79h-3V15.49h3v1.92a5,5,0,0,1,1.8-1.41,5.6,5.6,0,0,1,2.44-.53,6.66,6.66,0,0,1,2.39.44,6.16,6.16,0,0,1,2.05,1.28,6.35,6.35,0,0,1,1.44,2A6.71,6.71,0,0,1,254.4,22a6.55,6.55,0,0,1-.56,2.76,6.42,6.42,0,0,1-1.44,2,6.32,6.32,0,0,1-2.05,1.28A6.44,6.44,0,0,1,248,28.57Zm-.47-2.76a4,4,0,0,0,2.79-1.1,3.68,3.68,0,0,0,.84-1.22,3.77,3.77,0,0,0,.3-1.5,3.7,3.7,0,0,0-.3-1.49,3.57,3.57,0,0,0-.84-1.19,4.18,4.18,0,0,0-4.35-.8,3.66,3.66,0,0,0-2,2,3.76,3.76,0,0,0-.29,1.47,3.82,3.82,0,0,0,1.09,2.7,3.6,3.6,0,0,0,1.23.82A4.07,4.07,0,0,0,247.53,25.81Z"/><path class="cls-1" d="M262.26,28.57a7.55,7.55,0,0,1-2.81-.5,6.51,6.51,0,0,1-2.18-1.39,6.26,6.26,0,0,1-1.41-2.08,6.55,6.55,0,0,1,1.5-7.22,6.91,6.91,0,0,1,4.82-1.91,7.53,7.53,0,0,1,2.69.47A6.33,6.33,0,0,1,267,17.26a6.07,6.07,0,0,1,1.39,2,6.21,6.21,0,0,1,.5,2.51v1H258.24A3.87,3.87,0,0,0,259.6,25a4.09,4.09,0,0,0,2.66.85,3.81,3.81,0,0,0,3.62-2.3L268.36,25a6.56,6.56,0,0,1-6.09,3.52Zm-.11-10.44a4.46,4.46,0,0,0-2.36.6,3.29,3.29,0,0,0-1.39,1.59h7.41a2.77,2.77,0,0,0-1.3-1.63,4.65,4.65,0,0,0-2.36-.57Z"/><path class="cls-1" d="M270.2,15.49h3v1.94a3.37,3.37,0,0,1,3.35-1.94,4.82,4.82,0,0,1,1.28.16,4.69,4.69,0,0,1,1,.4l-1.13,2.86a3.32,3.32,0,0,0-.75-.37,3.24,3.24,0,0,0-1.06-.15,2.56,2.56,0,0,0-2,.75,3.57,3.57,0,0,0-.68,2.44v7h-3V15.49Z"/><path class="cls-1" d="M284.62,28.57a7.24,7.24,0,0,1-3.62-.76,5.46,5.46,0,0,1-2.21-2.33l2.79-1.25a3.31,3.31,0,0,0,1.27,1.32,3.7,3.7,0,0,0,1.88.46,2.64,2.64,0,0,0,1.67-.45A1.33,1.33,0,0,0,287,24.5a.69.69,0,0,0-.26-.55,2.42,2.42,0,0,0-.67-.37,5.59,5.59,0,0,0-1-.27l-1.16-.23q-.85-.17-1.66-.4a5.47,5.47,0,0,1-1.46-.65,3.32,3.32,0,0,1-1-1.06,3.23,3.23,0,0,1,0-3.06,3.89,3.89,0,0,1,1-1.22,5.11,5.11,0,0,1,1.62-.84,6.81,6.81,0,0,1,2.11-.31,6.65,6.65,0,0,1,3.27.73,5.49,5.49,0,0,1,2.06,2l-2.57,1.21a2.87,2.87,0,0,0-1.11-1,3.46,3.46,0,0,0-1.65-.38,2.55,2.55,0,0,0-1.58.41,1.18,1.18,0,0,0-.51.94q0,.62.76.88a17.9,17.9,0,0,0,2.23.56,15.34,15.34,0,0,1,1.62.39,6.15,6.15,0,0,1,1.48.66A3.38,3.38,0,0,1,289.56,23a3,3,0,0,1,.41,1.63,3.44,3.44,0,0,1-.31,1.37,4,4,0,0,1-1,1.32,5.09,5.09,0,0,1-1.66,1A6.82,6.82,0,0,1,284.62,28.57Z"/><path class="cls-2" d="M3.77,18A33.66,33.66,0,0,1,37.54,40.67H30a26.6,26.6,0,0,0-9.45-11.12,26.6,26.6,0,0,0-13.89-4.5Z"/><path class="cls-3" d="M36.44,6.44A33.58,33.58,0,0,1,21.23,21.53,33.58,33.58,0,0,1,0,24.4l3.77-6.53a26.59,26.59,0,0,0,14.36-2.62A26.6,26.6,0,0,0,29,5.46Z"/><path class="cls-4" d="M24.66,23.81A33.71,33.71,0,0,1,32.83,0L36.6,6.54a26.74,26.74,0,0,0-1.87,28A33.57,33.57,0,0,0,24.66,23.81Z"/></svg>